HIERARCHY
ROOT Hips
{
  OFFSET 59.9122 92.5874 6.24043
  CHANNELS 6 Xposition Yposition Zposition Zrotation Xrotation Yrotation
  JOINT spine
  {
    OFFSET 0 7.4756 0.429885
    CHANNELS 3 Zrotation Xrotation Yrotation
    JOINT spine1
    {
      OFFSET 0 9.92301 0
      CHANNELS 3 Zrotation Xrotation Yrotation
      JOINT spine2
      {
        OFFSET 0 9.50804 0
        CHANNELS 3 Zrotation Xrotation Yrotation
        JOINT Neck
        {
          OFFSET 0 24.4111 1.16384
          CHANNELS 3 Zrotation Xrotation Yrotation
          JOINT Head
          {
            OFFSET 0 7.37523 0
            CHANNELS 3 Zrotation Xrotation Yrotation
            End Site
            {
              OFFSET 0 17.8522 -5.88741
            }
          }
        }
        JOINT RightShoulder
        {
          OFFSET -4.00356 10.2679 -0.557468
          CHANNELS 3 Zrotation Xrotation Yrotation
          JOINT RightArm
          {
            OFFSET 0 13.4673 0
            CHANNELS 3 Zrotation Xrotation Yrotation
            JOINT RightArmRoll
            {
              OFFSET 0 6.79858 0
              CHANNELS 3 Zrotation Xrotation Yrotation
              JOINT RightForeArm
              {
                OFFSET 0 19.8018 0
                CHANNELS 3 Zrotation Xrotation Yrotation
                JOINT RightForeArmRoll
                {
                  OFFSET 0 7.62905 0
                  CHANNELS 3 Zrotation Xrotation Yrotation
                  JOINT RightHand
                  {
                    OFFSET 0 15.3098 0
                    CHANNELS 3 Zrotation Xrotation Yrotation
                    End Site
                    {
                      OFFSET 0 0 0
                    }
                  }
                }
              }
            }
          }
        }
        JOINT LeftShoulder
        {
          OFFSET 4.00356 10.2679 -0.557468
          CHANNELS 3 Zrotation Xrotation Yrotation
          JOINT LeftArm
          {
            OFFSET 0 13.4673 0
            CHANNELS 3 Zrotation Xrotation Yrotation
            JOINT LeftArmRoll
            {
              OFFSET 0 6.79858 0
              CHANNELS 3 Zrotation Xrotation Yrotation
              JOINT LeftForeArm
              {
                OFFSET 0 19.8018 0
                CHANNELS 3 Zrotation Xrotation Yrotation
                JOINT LeftForeArmRoll
                {
                  OFFSET 0 7.62906 0
                  CHANNELS 3 Zrotation Xrotation Yrotation
                  JOINT LeftHand
                  {
                    OFFSET 0 15.3098 0
                    CHANNELS 3 Zrotation Xrotation Yrotation
                    End Site
                    {
                      OFFSET 0 0 0
                    }
                  }
                }
              }
            }
          }
        }
      }
    }
  }
  JOINT RightUpLeg
  {
    OFFSET -6.62609 -1.21505 -1.01927
    CHANNELS 3 Zrotation Xrotation Yrotation
    JOINT RightUpLegRoll
    {
      OFFSET 0 17.9517 0
      CHANNELS 3 Zrotation Xrotation Yrotation
      JOINT RightLeg
      {
        OFFSET 0 -22.2304 0
        CHANNELS 3 Zrotation Xrotation Yrotation
        JOINT RightLegRoll
        {
          OFFSET 0 22.3032 0
          CHANNELS 3 Zrotation Xrotation Yrotation
          JOINT RightFoot
          {
            OFFSET 0 18.5636 0
            CHANNELS 3 Zrotation Xrotation Yrotation
            JOINT RightToeBase
            {
              OFFSET 0 15.5183 0
              CHANNELS 3 Zrotation Xrotation Yrotation
              End Site
              {
                OFFSET 0.00657761 7.51538 -0.866263
              }
            }
          }
        }
      }
    }
  }
  JOINT LeftUpLeg
  {
    OFFSET 6.62609 -1.21505 -1.01927
    CHANNELS 3 Zrotation Xrotation Yrotation
    JOINT LeftUpLegRoll
    {
      OFFSET 0 17.9518 0
      CHANNELS 3 Zrotation Xrotation Yrotation
      JOINT LeftLeg
      {
        OFFSET 0 22.2303 0
        CHANNELS 3 Zrotation Xrotation Yrotation
        JOINT LeftLegRoll
        {
          OFFSET 0 22.5093 0
          CHANNELS 3 Zrotation Xrotation Yrotation
          JOINT LeftFoot
          {
            OFFSET 0 18.3575 0
            CHANNELS 3 Zrotation Xrotation Yrotation
            JOINT LeftToeBase
            {
              OFFSET 0 15.5183 0
              CHANNELS 3 Zrotation Xrotation Yrotation
              End Site
              {
                OFFSET -0.029478 7.51538 -0.866263
              }
            }
          }
        }
      }
    }
  }
}
MOTION
Frames: 7
Frame Time: 0.00208333
60.7973 92.3497 7.51757 1.87926 -9.51647 -4.33564 0.018006 -0.13397 -0.129696 0.022362 3.73412 -0.262692 0.0255567 5.37919 -0.263348 -17.8681 6.01434 1.82144 15.976 6.95967 -1.28165 60.0612 -0.23488 -0.310201 113.342 -0.726179 27.9937 -6.97631e-008 3.65563e-007 -3.07154e-006 2.01005 11.3538 -1.88324 1.47858e-005 -1.29983e-006 -3.0023 8.03003 -4.95139 0.697654 -81.2074 -1.02191 2.91557 -93.3898 3.22057 -23.9313 2.30083e-005 -1.30642e-006 8.51409e-006 -4.77425 7.66056 1.28267 1.18793e-006 -7.31459e-007 3.00564 -8.02959 -4.95141 -0.697659 172.799 7.30495 2.96703 180 7.01486e-015 178.686 -178.555 29.9187 178.333 8.87516e-007 -1.14187e-006 0.626872 -19.4409 68.8164 20.233 8.11419 28.1974 0.43881 173.478 -3.45449 4.59143 4.54188e-006 -4.6773e-006 -1.29528 -5.21176 -11.7388 -0.302197 -1.82391e-006 5.05547e-006 -0.130528 22.4128 71.0166 -22.5577 -8.13649 25.2327 3.48773 
60.7994 92.3499 7.50747 1.88531 -9.51772 -4.37832 0.0180638 -0.134042 -0.129678 0.0234892 3.73317 -0.262185 0.0266796 5.37823 -0.262858 -17.913 6.00005 1.83274 15.9939 6.9589 -1.27664 60.0594 -0.235501 -0.310372 113.275 -0.546468 28.0221 -6.97631e-008 3.65563e-007 -3.07154e-006 1.95565 11.3137 -1.87813 1.47858e-005 -1.29983e-006 -3.0023 8.03003 -4.95139 0.697654 -81.2438 -1.01109 2.91496 -93.3076 3.28358 -23.9353 2.30083e-005 -1.30642e-006 8.51409e-006 -4.77035 7.70712 1.28458 1.18793e-006 -7.31459e-007 3.00564 -8.02959 -4.95141 -0.697659 172.775 7.30738 2.96535 180 7.01486e-015 178.685 -178.529 29.909 178.328 8.87516e-007 -1.14187e-006 0.62957 -19.4698 68.8519 20.2651 8.11579 28.1789 0.412771 173.467 -3.42578 4.58923 4.54188e-006 -4.6773e-006 -1.29724 -5.22489 -11.7884 -0.305691 -1.82391e-006 5.05547e-006 -0.130959 22.4543 71.0407 -22.5847 -8.13649 25.2327 3.48773 
60.8044 92.3363 7.50096 1.89157 -9.51911 -4.42123 0.0181402 -0.133991 -0.12965 0.0246701 3.7324 -0.261629 0.027856 5.37746 -0.26232 -17.9599 5.98499 1.84446 16.0133 6.95889 -1.27155 60.057 -0.235879 -0.310319 113.212 -0.370015 28.0507 -6.97631e-008 3.65563e-007 -3.07154e-006 1.90186 11.2763 -1.87313 1.47858e-005 -1.29983e-006 -3.0023 8.03003 -4.95139 0.697654 -81.2812 -0.999603 2.91422 -93.2267 3.34404 -23.9364 2.30083e-005 -1.30642e-006 8.51409e-006 -4.76885 7.75798 1.28688 1.18793e-006 -7.31459e-007 3.00564 -8.02959 -4.95141 -0.697659 172.751 7.30981 2.963 180 7.01486e-015 178.685 -178.502 29.8993 178.323 8.87516e-007 -1.14187e-006 0.632364 -19.4994 68.8882 20.298 8.11742 28.16 0.386175 173.456 -3.39686 4.58664 4.54188e-006 -4.6773e-006 -1.29922 -5.23862 -11.8389 -0.309277 -1.82391e-006 5.05547e-006 -0.131394 22.4963 71.065 -22.6121 -8.13649 25.2327 3.48773 
60.8087 92.3402 7.49654 1.89796 -9.52059 -4.4643 0.0182295 -0.133854 -0.129617 0.0258888 3.73177 -0.261039 0.0290699 5.37683 -0.261749 -18.008 5.96939 1.85648 16.0338 6.95941 -1.26639 60.0541 -0.236086 -0.31011 113.15 -0.195869 28.0795 -6.97631e-008 3.65563e-007 -3.07154e-006 1.8485 11.2406 -1.86821 1.47858e-005 -1.29983e-006 -3.0023 8.03003 -4.95139 0.697654 -81.3195 -0.987654 2.91337 -93.1467 3.40274 -23.9357 2.30083e-005 -1.30642e-006 8.51409e-006 -4.76903 7.81185 1.28945 1.18793e-006 -7.31459e-007 3.00564 -8.02959 -4.95141 -0.697659 172.726 7.31224 2.96018 180 7.01486e-015 178.685 -178.474 29.8895 178.317 8.87516e-007 -1.14187e-006 0.635226 -19.5297 68.9251 20.3316 8.11907 28.1408 0.359192 173.444 -3.36781 4.58377 4.54188e-006 -4.6773e-006 -1.30121 -5.25277 -11.8898 -0.312929 -1.82391e-006 5.05547e-006 -0.131833 22.5387 71.0895 -22.6396 -8.13649 25.2327 3.48773 
60.7782 92.3262 7.46093 1.90444 -9.52213 -4.50747 0.0183263 -0.133667 -0.129579 0.027129 3.73121 -0.26043 0.0303053 5.37628 -0.261159 -18.0569 5.95348 1.86865 16.055 6.96024 -1.2612 60.051 -0.236195 -0.309812 113.089 -0.0230816 28.1085 -6.97631e-008 3.65563e-007 -3.07154e-006 1.79539 11.2058 -1.86334 1.47858e-005 -1.29983e-006 -3.0023 8.03003 -4.95139 0.697654 -81.3582 -0.975439 2.91247 -93.0672 3.46042 -23.9338 2.30083e-005 -1.30642e-006 8.51409e-006 -4.77018 7.86745 1.29218 1.18793e-006 -7.31459e-007 3.00564 -8.02959 -4.95141 -0.697659 172.702 7.31467 2.95709 180 7.01486e-015 178.685 -178.446 29.8797 178.312 8.87516e-007 -1.14187e-006 0.638126 -19.5604 68.9624 20.3657 8.12072 28.1215 0.331993 173.433 -3.33868 4.58075 4.54188e-006 -4.6773e-006 -1.30321 -5.26716 -11.941 -0.316618 -1.82391e-006 5.05547e-006 -0.132274 22.5813 71.1141 -22.6673 -8.13649 25.2327 3.48773 
60.7846 92.3255 7.46039 1.91094 -9.52368 -4.55065 0.018425 -0.133468 -0.129541 0.0283746 3.73068 -0.259816 0.031546 5.37574 -0.260564 -18.106 5.93749 1.88087 16.0763 6.96115 -1.256 60.0477 -0.23628 -0.309491 113.029 0.149296 28.1378 -6.97631e-008 3.65563e-007 -3.07154e-006 1.74234 11.1714 -1.85848 1.47858e-005 -1.29983e-006 -3.0023 8.03003 -4.95139 0.697654 -81.397 -0.963157 2.91155 -92.9879 3.51785 -23.9316 2.30083e-005 -1.30642e-006 8.51409e-006 -4.77158 7.92347 1.29494 1.18793e-006 -7.31459e-007 3.00564 -8.02959 -4.95141 -0.697659 172.677 7.31709 2.95394 180 -7.01486e-015 178.685 -178.417 29.8699 178.306 8.87516e-007 -1.14187e-006 0.641036 -19.5912 68.9997 20.3999 8.12236 28.1022 0.304747 173.422 -3.30953 4.57768 4.54188e-006 -4.6773e-006 -1.30521 -5.28162 -11.9923 -0.320317 -1.82391e-006 5.05547e-006 -0.132715 22.624 71.1387 -22.6951 -8.13649 25.2327 3.48773 
60.8135 92.2939 7.47382 1.91739 -9.52519 -4.59379 0.0185199 -0.133293 -0.129505 0.0296094 3.7301 -0.259211 0.032776 5.37517 -0.259979 -18.1547 5.92165 1.89301 16.0973 6.96191 -1.25082 60.0447 -0.236414 -0.309215 112.968 0.322211 28.1674 -6.97631e-008 3.65563e-007 -3.07154e-006 1.68918 11.1364 -1.8536 1.47858e-005 -1.29983e-006 -3.0023 8.03003 -4.95139 0.697654 -81.4356 -0.951008 2.91066 -92.9083 3.57578 -23.9301 2.30083e-005 -1.30642e-006 8.51409e-006 -4.7725 7.97863 1.29764 1.18793e-006 -7.31459e-007 3.00564 -8.02959 -4.95141 -0.697659 172.652 7.31952 2.95092 180 -7.01486e-015 178.685 -178.388 29.8601 178.3 8.87516e-007 -1.14187e-006 0.643927 -19.6221 69.0368 20.4341 8.12396 28.0829 0.277624 173.411 -3.28041 4.5747 4.54188e-006 -4.6773e-006 -1.30721 -5.29597 -12.0434 -0.324 -1.82391e-006 5.05547e-006 -0.133155 22.6668 71.1633 -22.7229 -8.13649 25.2327 3.48773 
